{
  "accessors": [
    {
      "bufferView": 2,
      "componentType": 5126,
      "count": 3216,
      "max": [
        133.29794311523438,
        4090.465087890625,
        541.4773559570313
      ],
      "min": [
        -320.59161376953125,
        -7.6866607666015625,
        495.6877746582031
      ],
      "type": "VEC3"
    },
    {
      "bufferView": 2,
      "byteOffset": 38592,
      "componentType": 5126,
      "count": 3216,
      "max": [
        1.0,
        1.0,
        1.0
      ],
      "min": [
        -0.9795957803726196,
        -1.0,
        -1.0
      ],
      "type": "VEC3"
    },
    {
      "bufferView": 3,
      "componentType": 5126,
      "count": 3216,
      "max": [
        1.0,
        0.9971127510070801,
        1.0,
        1.0
      ],
      "min": [
        -1.0,
        -1.0,
        -0.9918270111083984,
        1.0
      ],
      "type": "VEC4"
    },
    {
      "bufferView": 1,
      "componentType": 5126,
      "count": 3216,
      "max": [
        0.9989100098609924,
        0.9994279742240906
      ],
      "min": [
        0.0005719999899156392,
        0.0005719999899156392
      ],
      "type": "VEC2"
    },
    {
      "bufferView": 0,
      "componentType": 5125,
      "count": 12480,
      "type": "SCALAR"
    },
    {
      "bufferView": 2,
      "byteOffset": 77184,
      "componentType": 5126,
      "count": 9538,
      "max": [
        84.02112579345703,
        2039.927001953125,
        639.4534301757813
      ],
      "min": [
        -582.9153442382813,
        -16.0,
        0.851078987121582
      ],
      "type": "VEC3"
    },
    {
      "bufferView": 2,
      "byteOffset": 191640,
      "componentType": 5126,
      "count": 9538,
      "max": [
        1.0,
        1.0,
        1.0
      ],
      "min": [
        -1.0,
        -1.0,
        -1.0
      ],
      "type": "VEC3"
    },
    {
      "bufferView": 3,
      "byteOffset": 51456,
      "componentType": 5126,
      "count": 9538,
      "max": [
        1.0,
        1.0,
        0.8675495386123657,
        1.0
      ],
      "min": [
        -1.0,
        -1.0,
        -1.0,
        1.0
      ],
      "type": "VEC4"
    },
    {
      "bufferView": 1,
      "byteOffset": 25728,
      "componentType": 5126,
      "count": 9538,
      "max": [
        0.9990249872207642,
        0.9994480013847351
      ],
      "min": [
        0.0005520000122487545,
        0.0019950000569224358
      ],
      "type": "VEC2"
    },
    {
      "bufferView": 0,
      "byteOffset": 49920,
      "componentType": 5125,
      "count": 28668,
      "type": "SCALAR"
    },
    {
      "bufferView": 2,
      "byteOffset": 306096,
      "componentType": 5126,
      "count": 9538,
      "max": [
        84.02112579345703,
        6121.91357421875,
        639.4534301757813
      ],
      "min": [
        -13.53657341003418,
        2024.7479248046875,
        0.851078987121582
      ],
      "type": "VEC3"
    },
    {
      "bufferView": 2,
      "byteOffset": 420552,
      "componentType": 5126,
      "count": 9538,
      "max": [
        1.0,
        1.0,
        1.0
      ],
      "min": [
        -1.0,
        -1.0,
        -1.0
      ],
      "type": "VEC3"
    },
    {
      "bufferView": 3,
      "byteOffset": 204064,
      "componentType": 5126,
      "count": 9538,
      "max": [
        1.0,
        1.0,
        0.8675665855407715,
        1.0
      ],
      "min": [
        -1.0,
        -1.0,
        -1.0,
        1.0
      ],
      "type": "VEC4"
    },
    {
      "bufferView": 1,
      "byteOffset": 102032,
      "componentType": 5126,
      "count": 9538,
      "max": [
        0.9990249872207642,
        0.9994480013847351
      ],
      "min": [
        0.0005520000122487545,
        0.0019950000569224358
      ],
      "type": "VEC2"
    },
    {
      "bufferView": 0,
      "byteOffset": 164592,
      "componentType": 5125,
      "count": 28668,
      "type": "SCALAR"
    }
  ],
  "asset": {
    "extras": {
      "author": "adventurer (https://sketchfab.com/ahmagh2e)",
      "license": "CC-BY-4.0 (http://creativecommons.org/licenses/by/4.0/)",
      "source": "https://sketchfab.com/3d-models/street-light-77b0a1e448f14b47b9dc62881a241850",
      "title": "Street light"
    },
    "generator": "Sketchfab-15.87.0",
    "version": "2.0"
  },
  "bufferViews": [
    {
      "buffer": 0,
      "byteLength": 279264,
      "name": "floatBufferViews",
      "target": 34963
    },
    {
      "buffer": 0,
      "byteLength": 178336,
      "byteOffset": 279264,
      "byteStride": 8,
      "name": "floatBufferViews",
      "target": 34962
    },
    {
      "buffer": 0,
      "byteLength": 535008,
      "byteOffset": 457600,
      "byteStride": 12,
      "name": "floatBufferViews",
      "target": 34962
    },
    {
      "buffer": 0,
      "byteLength": 356672,
      "byteOffset": 992608,
      "byteStride": 16,
      "name": "floatBufferViews",
      "target": 34962
    }
  ],
  "buffers": [
    {
      "byteLength": 1349280,
      "uri": "scene.bin"
    }
  ],
  "extensionsUsed": [
    "KHR_materials_emissive_strength"
  ],
  "images": [
    {
      "uri": "textures/01_1_baseColor.png"
    },
    {
      "uri": "textures/01_1_metallicRoughness.png"
    },
    {
      "uri": "textures/01_1_normal.png"
    },
    {
      "uri": "textures/02_1_baseColor.png"
    },
    {
      "uri": "textures/02_1_metallicRoughness.png"
    },
    {
      "uri": "textures/02_1_emissive.png"
    },
    {
      "uri": "textures/02_1_normal.png"
    }
  ],
  "materials": [
    {
      "doubleSided": true,
      "name": "01_1",
      "normalTexture": {
        "index": 2
      },
      "pbrMetallicRoughness": {
        "baseColorTexture": {
          "index": 0
        },
        "metallicRoughnessTexture": {
          "index": 1
        }
      }
    },
    {
      "doubleSided": true,
      "emissiveFactor": [
        1.0,
        1.0,
        1.0
      ],
      "emissiveTexture": {
        "index": 5
      },
      "extensions": {
        "KHR_materials_emissive_strength": {
          "emissiveStrength": 2.2400068266874715
        }
      },
      "name": "02_1",
      "normalTexture": {
        "index": 6
      },
      "pbrMetallicRoughness": {
        "baseColorTexture": {
          "index": 3
        },
        "metallicRoughnessTexture": {
          "index": 4
        }
      }
    }
  ],
  "meshes": [
    {
      "name": "Object_0",
      "primitives": [
        {
          "attributes": {
            "NORMAL": 1,
            "POSITION": 0,
            "TANGENT": 2,
            "TEXCOORD_0": 3
          },
          "indices": 4,
          "material": 1,
          "mode": 4
        }
      ]
    },
    {
      "name": "Object_1",
      "primitives": [
        {
          "attributes": {
            "NORMAL": 6,
            "POSITION": 5,
            "TANGENT": 7,
            "TEXCOORD_0": 8
          },
          "indices": 9,
          "material": 0,
          "mode": 4
        }
      ]
    },
    {
      "name": "Object_2",
      "primitives": [
        {
          "attributes": {
            "NORMAL": 11,
            "POSITION": 10,
            "TANGENT": 12,
            "TEXCOORD_0": 13
          },
          "indices": 14,
          "material": 0,
          "mode": 4
        }
      ]
    }
  ],
  "nodes": [
    {
      "children": [
        1
      ],
      "matrix": [
        1.0,
        0.0,
        0.0,
        0.0,
        0.0,
        2.220446049250313e-16,
        -1.0,
        0.0,
        0.0,
        1.0,
        2.220446049250313e-16,
        0.0,
        0.0,
        0.0,
        0.0,
        1.0
      ],
      "name": "Sketchfab_model"
    },
    {
      "children": [
        2,
        3,
        4
      ],
      "name": "Untitled_3.obj.cleaner.materialmerger.gles"
    },
    {
      "mesh": 0,
      "name": "Object_2"
    },
    {
      "mesh": 1,
      "name": "Object_3"
    },
    {
      "mesh": 2,
      "name": "Object_4"
    }
  ],
  "samplers": [
    {
      "magFilter": 9729,
      "minFilter": 9987,
      "wrapS": 10497,
      "wrapT": 10497
    }
  ],
  "scene": 0,
  "scenes": [
    {
      "name": "Sketchfab_Scene",
      "nodes": [
        0
      ]
    }
  ],
  "textures": [
    {
      "sampler": 0,
      "source": 0
    },
    {
      "sampler": 0,
      "source": 1
    },
    {
      "sampler": 0,
      "source": 2
    },
    {
      "sampler": 0,
      "source": 3
    },
    {
      "sampler": 0,
      "source": 4
    },
    {
      "sampler": 0,
      "source": 5
    },
    {
      "sampler": 0,
      "source": 6
    }
  ]
}
