{
  "accessors": [
    {
      "bufferView": 2,
      "componentType": 5126,
      "count": 2436,
      "max": [
        0.5559918284416199,
        5.570152282714844,
        0.8424375653266907
      ],
      "min": [
        -0.5541782975196838,
        0.03659237176179886,
        -0.16540217399597168
      ],
      "type": "VEC3"
    },
    {
      "bufferView": 2,
      "byteOffset": 29232,
      "componentType": 5126,
      "count": 2436,
      "max": [
        1.0,
        1.0,
        1.0
      ],
      "min": [
        -1.0,
        -1.0,
        -1.0
      ],
      "type": "VEC3"
    },
    {
      "bufferView": 1,
      "componentType": 5126,
      "count": 2436,
      "max": [
        0.65625,
        1.0
      ],
      "min": [
        0.3437499701976776,
        -7.450580596923828e-08
      ],
      "type": "VEC2"
    },
    {
      "bufferView": 0,
      "componentType": 5125,
      "count": 6960,
      "type": "SCALAR"
    },
    {
      "bufferView": 2,
      "byteOffset": 58464,
      "componentType": 5126,
      "count": 2544,
      "max": [
        1.7870254516601563,
        9.100414276123047,
        0.5074172019958496
      ],
      "min": [
        -1.7870254516601563,
        0.038716793060302734,
        -9.692413330078125
      ],
      "type": "VEC3"
    },
    {
      "bufferView": 2,
      "byteOffset": 88992,
      "componentType": 5126,
      "count": 2544,
      "max": [
        1.0,
        1.0,
        1.0
      ],
      "min": [
        -1.0,
        -1.0,
        -1.0
      ],
      "type": "VEC3"
    },
    {
      "bufferView": 0,
      "byteOffset": 27840,
      "componentType": 5125,
      "count": 6624,
      "type": "SCALAR"
    },
    {
      "bufferView": 2,
      "byteOffset": 119520,
      "componentType": 5126,
      "count": 3748,
      "max": [
        1.7919714450836182,
        9.142119407653809,
        0.6527366638183594
      ],
      "min": [
        -1.7936151027679443,
        4.589171409606934,
        -9.83773136138916
      ],
      "type": "VEC3"
    },
    {
      "bufferView": 2,
      "byteOffset": 164496,
      "componentType": 5126,
      "count": 3748,
      "max": [
        1.0,
        1.0,
        1.0
      ],
      "min": [
        -1.0,
        -1.0,
        -1.0
      ],
      "type": "VEC3"
    },
    {
      "bufferView": 1,
      "byteOffset": 19488,
      "componentType": 5126,
      "count": 3748,
      "max": [
        0.875,
        1.0
      ],
      "min": [
        0.125,
        -7.450580596923828e-08
      ],
      "type": "VEC2"
    },
    {
      "bufferView": 0,
      "byteOffset": 54336,
      "componentType": 5125,
      "count": 6780,
      "type": "SCALAR"
    },
    {
      "bufferView": 2,
      "byteOffset": 209472,
      "componentType": 5126,
      "count": 108,
      "max": [
        0.5488156676292419,
        5.62306547164917,
        -8.871713638305664
      ],
      "min": [
        -0.5488156676292419,
        5.367082118988037,
        -9.490560531616211
      ],
      "type": "VEC3"
    },
    {
      "bufferView": 2,
      "byteOffset": 210768,
      "componentType": 5126,
      "count": 108,
      "max": [
        1.0,
        1.0,
        1.0
      ],
      "min": [
        -1.0,
        -1.0,
        -1.0
      ],
      "type": "VEC3"
    },
    {
      "bufferView": 1,
      "byteOffset": 49472,
      "componentType": 5126,
      "count": 108,
      "max": [
        0.875,
        1.0
      ],
      "min": [
        0.125,
        -7.450580596923828e-08
      ],
      "type": "VEC2"
    },
    {
      "bufferView": 0,
      "byteOffset": 81456,
      "componentType": 5125,
      "count": 276,
      "type": "SCALAR"
    },
    {
      "bufferView": 2,
      "byteOffset": 212064,
      "componentType": 5126,
      "count": 48,
      "max": [
        0.8473146557807922,
        9.683126449584961,
        0.5074172019958496
      ],
      "min": [
        -0.8579294085502625,
        5.462718963623047,
        -9.692411422729492
      ],
      "type": "VEC3"
    },
    {
      "bufferView": 2,
      "byteOffset": 212640,
      "componentType": 5126,
      "count": 48,
      "max": [
        1.0,
        1.0,
        1.0
      ],
      "min": [
        -1.0,
        -1.0,
        -1.0
      ],
      "type": "VEC3"
    },
    {
      "bufferView": 1,
      "byteOffset": 50336,
      "componentType": 5126,
      "count": 48,
      "max": [
        0.875,
        1.0
      ],
      "min": [
        0.125,
        0.0
      ],
      "type": "VEC2"
    },
    {
      "bufferView": 0,
      "byteOffset": 82560,
      "componentType": 5125,
      "count": 72,
      "type": "SCALAR"
    }
  ],
  "asset": {
    "extras": {
      "author": "tobyporter (https://sketchfab.com/tobyporter)",
      "license": "CC-BY-4.0 (http://creativecommons.org/licenses/by/4.0/)",
      "source": "https://sketchfab.com/3d-models/billboard-model-free-download-087e0e4c913e4895aa4c1ce4798b42bb",
      "title": "Billboard Model Free Download"
    },
    "generator": "Sketchfab-12.65.0",
    "version": "2.0"
  },
  "bufferViews": [
    {
      "buffer": 0,
      "byteLength": 82848,
      "name": "floatBufferViews",
      "target": 34963
    },
    {
      "buffer": 0,
      "byteLength": 50720,
      "byteOffset": 82848,
      "byteStride": 8,
      "name": "floatBufferViews",
      "target": 34962
    },
    {
      "buffer": 0,
      "byteLength": 213216,
      "byteOffset": 133568,
      "byteStride": 12,
      "name": "floatBufferViews",
      "target": 34962
    }
  ],
  "buffers": [
    {
      "byteLength": 346784,
      "uri": "scene.bin"
    }
  ],
  "materials": [
    {
      "doubleSided": true,
      "name": "Ladder",
      "pbrMetallicRoughness": {
        "baseColorFactor": [
          0.0919,
          0.065,
          0.0489,
          1.0
        ],
        "metallicFactor": 0.0,
        "roughnessFactor": 0.6456399078245748
      }
    },
    {
      "doubleSided": true,
      "name": "Metal2",
      "pbrMetallicRoughness": {
        "baseColorFactor": [
          0.115,
          0.115,
          0.115,
          1.0
        ],
        "metallicFactor": 0.652288577178678,
        "roughnessFactor": 0.29963853370543997
      }
    },
    {
      "doubleSided": true,
      "name": "Metal",
      "pbrMetallicRoughness": {
        "baseColorFactor": [
          0.157,
          0.157,
          0.157,
          1.0
        ],
        "roughnessFactor": 0.4151618238087421
      }
    },
    {
      "doubleSided": true,
      "name": "lambert1",
      "pbrMetallicRoughness": {
        "baseColorFactor": [
          0.5,
          0.5,
          0.5,
          1.0
        ],
        "metallicFactor": 0.0,
        "roughnessFactor": 0.6
      }
    },
    {
      "doubleSided": true,
      "name": "White",
      "pbrMetallicRoughness": {
        "baseColorFactor": [
          0.811,
          0.811,
          0.811,
          1.0
        ],
        "metallicFactor": 0.0,
        "roughnessFactor": 0.4455626896254005
      }
    }
  ],
  "meshes": [
    {
      "name": "pCylinder66_Ladder_0",
      "primitives": [
        {
          "attributes": {
            "NORMAL": 1,
            "POSITION": 0,
            "TEXCOORD_0": 2
          },
          "indices": 3,
          "material": 0,
          "mode": 4
        }
      ]
    },
    {
      "name": "pCylinder66_Metal2_0",
      "primitives": [
        {
          "attributes": {
            "NORMAL": 5,
            "POSITION": 4
          },
          "indices": 6,
          "material": 1,
          "mode": 4
        }
      ]
    },
    {
      "name": "pCylinder66_Metal_0",
      "primitives": [
        {
          "attributes": {
            "NORMAL": 8,
            "POSITION": 7,
            "TEXCOORD_0": 9
          },
          "indices": 10,
          "material": 2,
          "mode": 4
        }
      ]
    },
    {
      "name": "pCylinder66_lambert1_0",
      "primitives": [
        {
          "attributes": {
            "NORMAL": 12,
            "POSITION": 11,
            "TEXCOORD_0": 13
          },
          "indices": 14,
          "material": 3,
          "mode": 4
        }
      ]
    },
    {
      "name": "pCylinder66_White_0",
      "primitives": [
        {
          "attributes": {
            "NORMAL": 16,
            "POSITION": 15,
            "TEXCOORD_0": 17
          },
          "indices": 18,
          "material": 4,
          "mode": 4
        }
      ]
    }
  ],
  "nodes": [
    {
      "children": [
        1
      ],
      "matrix": [
        1.0,
        0.0,
        0.0,
        0.0,
        0.0,
        2.220446049250313e-16,
        -1.0,
        0.0,
        0.0,
        1.0,
        2.220446049250313e-16,
        0.0,
        0.0,
        0.0,
        0.0,
        1.0
      ],
      "name": "Sketchfab_model"
    },
    {
      "children": [
        2
      ],
      "matrix": [
        0.009999999776482582,
        0.0,
        0.0,
        0.0,
        0.0,
        0.0,
        0.009999999776482582,
        0.0,
        0.0,
        -0.009999999776482582,
        0.0,
        0.0,
        0.0,
        0.0,
        0.0,
        1.0
      ],
      "name": "155168e2d52449709e8cd034f8003ef7.fbx"
    },
    {
      "children": [
        3
      ],
      "name": "RootNode"
    },
    {
      "children": [
        4,
        5,
        6,
        7,
        8
      ],
      "name": "pCylinder66"
    },
    {
      "mesh": 0,
      "name": "pCylinder66_Ladder_0"
    },
    {
      "mesh": 1,
      "name": "pCylinder66_Metal2_0"
    },
    {
      "mesh": 2,
      "name": "pCylinder66_Metal_0"
    },
    {
      "mesh": 3,
      "name": "pCylinder66_lambert1_0"
    },
    {
      "mesh": 4,
      "name": "pCylinder66_White_0"
    }
  ],
  "scene": 0,
  "scenes": [
    {
      "name": "Sketchfab_Scene",
      "nodes": [
        0
      ]
    }
  ]
}
